<svg width="13" height="16" viewBox="0 0 13 16" fill="none" xmlns="http://www.w3.org/2000/svg">
<path d="M3.42331 5.20554C3.47846 5.44516 3.56303 5.60028 3.6617 5.69693C3.89642 7.24 5.36294 8.55503 6.54082 8.50004C8.03921 8.43059 9.10126 6.90546 9.33965 5.69693C9.43832 5.60085 9.53331 5.39538 9.5903 5.15402C9.65404 4.87678 9.72268 4.45889 9.54618 4.23779C9.53576 4.22621 9.46835 4.16776 9.45671 4.15792C9.62524 3.58375 9.99539 2.55928 9.07368 1.63842C8.57422 1.1395 7.88048 0.888877 7.25355 0.690929C5.40278 0.106923 4.0962 0.92592 3.49317 2.28783C3.44966 2.38449 3.16837 2.99627 3.5091 4.15792C3.47601 4.17875 3.44598 4.20538 3.42085 4.23779C3.24374 4.45831 3.35896 4.92829 3.42331 5.20554Z" fill="#F3AA4F"/>
<path d="M12.9952 13.6918C12.9438 12.6298 12.88 10.9466 11.8976 9.56966C11.8976 9.56966 11.6176 9.20907 10.9533 8.96945C10.9533 8.96945 9.51063 8.55445 8.84632 8.10588L8.54296 8.30209L8.57667 10.1647L6.75531 14.7568C6.71548 14.8575 6.61374 14.9241 6.50037 14.9241C6.38699 14.9241 6.28526 14.8575 6.24543 14.7568L4.42468 10.1647C4.42468 10.1647 4.45839 8.30788 4.45778 8.30209C4.46207 8.31772 4.15381 8.10588 4.15381 8.10588C3.49072 8.55445 2.04748 8.96945 2.04748 8.96945C1.38317 9.20907 1.1031 9.56966 1.1031 9.56966C0.121331 10.9466 0.0563696 12.6298 0.00489112 13.6918C-0.0306535 14.4258 0.132362 14.6995 0.33705 14.7777C2.87788 15.7408 10.121 15.7408 12.6625 14.7777C12.8684 14.7001 13.0302 14.4258 12.9952 13.6918Z" fill="#F3AA4F"/>
<path d="M6.56533 9.09331L6.48321 9.09505C6.21846 9.09505 5.95127 9.04643 5.68897 8.96076L6.4109 10.0043L5.76312 10.5947L6.42989 14.4188C6.43541 14.4518 6.46544 14.4755 6.50098 14.4755C6.53591 14.4755 6.56594 14.4518 6.57207 14.4188L7.23884 10.5947L6.59046 10.0043L7.30196 8.97639C7.0697 9.04064 6.82395 9.08347 6.56533 9.09331Z" fill="#F3AA4F"/>
</svg>
